<?xml version="1.0" encoding="utf-8"?>
<!-- Generator: Adobe Illustrator 16.0.0, SVG Export Plug-In . SVG Version: 6.00 Build 0)  -->
<!DOCTYPE svg PUBLIC "-//W3C//DTD SVG 1.1//EN" "http://www.w3.org/Graphics/SVG/1.1/DTD/svg11.dtd">
<svg version="1.1"
	 id="svg1" xmlns:inkscape="http://www.inkscape.org/namespaces/inkscape" xmlns:sodipodi="http://sodipodi.sourceforge.net/DTD/sodipodi-0.dtd" sodipodi:version="0.32" sodipodi:docname="ooo_gulls.svg" sodipodi:docbase="/home/danny/flat/scalable/apps" inkscape:version="0.38.1"
	 xmlns="http://www.w3.org/2000/svg" xmlns:xlink="http://www.w3.org/1999/xlink" x="0px" y="0px" width="60px" height="60px"
	 viewBox="0 0 60 60" enable-background="new 0 0 60 60" xml:space="preserve">
<rect fill="#28A3CE" width="60" height="60"/>
<sodipodi:namedview  borderopacity="1.0" bordercolor="#666666" id="base" inkscape:cx="37.697545" inkscape:cy="29.932839" inkscape:zoom="6.9465337" pagecolor="#ffffff" showguides="true" snaptoguides="true" inkscape:window-height="685" inkscape:window-x="0" inkscape:window-y="0" inkscape:pageopacity="0.0" inkscape:pageshadow="2" inkscape:window-width="1016">
	</sodipodi:namedview>
<path id="rect948" fill="#DB3A3A" d="M4.612,8.348h51.091c1.207,0,2.186,0.88,2.186,1.965v45.57c0,1.086-0.979,1.965-2.186,1.965
	H4.612c-1.207,0-2.186-0.879-2.186-1.965v-45.57C2.426,9.228,3.405,8.348,4.612,8.348z"/>
<path id="rect812" sodipodi:fill-cmyk="(0 0 0 0.298039)" fill="#577A4D" d="M4.612,46.231h51.091c1.207,0,2.186,0.204,2.186,0.457
	v10.607c0,0.253-0.979,0.458-2.186,0.458H4.612c-1.207,0-2.186-0.205-2.186-0.458V46.688C2.426,46.436,3.405,46.231,4.612,46.231z"
	/>
<path id="rect946" sodipodi:fill-cmyk="(0 0 0 0.298039)" fill="#577A4D" d="M4.426,7.876h51.462c1.105,0,2,1.818,2,4.062v15.276
	c0,2.243-0.895,4.062-2,4.062H4.426c-1.104,0-2-1.818-2-4.062V11.938C2.426,9.695,3.322,7.876,4.426,7.876z"/>
<path id="rect947" sodipodi:fill-cmyk="(0 0 0 0.298039)" fill="#577A4D" d="M4.426,37.346h51.462c1.105,0,2,0.102,2,0.228v2.788
	c0,0.127-0.895,0.229-2,0.229H4.426c-1.104,0-2-0.102-2-0.229v-2.788C2.426,37.447,3.322,37.346,4.426,37.346z"/>
<g id="g949">
	
		<path id="path943" sodipodi:nodetypes="ccccc" sodipodi:stroke-cmyk="(0.0000000 0.0000000 0.0000000 0.80000001)" fill="#E6EFEF" stroke="#333333" stroke-width="1.5636" stroke-linecap="round" stroke-linejoin="round" d="
		M2.641,48.211c9.68-6.092,20.379-7.725,24.545-6.777c0.468-4.119,6.874-10.955,18.38-18.195
		c-13.622,3.473-16.455,4.373-22.354,12.419C13.128,36.649,10.231,39.61,2.641,48.211z"/>
	
		<path id="path944" sodipodi:nodetypes="ccccc" sodipodi:stroke-cmyk="(0.0000000 0.0000000 0.0000000 0.80000001)" fill="#E6EFEF" stroke="#333333" stroke-width="2.709" stroke-linecap="round" stroke-linejoin="round" d="
		M26.703,21.257c6.7-4.216,14.106-5.347,16.989-4.691c0.324-2.851,4.758-7.582,12.721-12.594
		c-9.428,2.404-11.389,3.027-15.471,8.596C33.961,13.255,31.956,15.304,26.703,21.257z"/>
</g>
</svg>
